<svg width="58" height="40" viewBox="0 0 58 40" fill="none" xmlns="http://www.w3.org/2000/svg">
<rect x="21.5491" y="1" width="8.30633" height="39.1584" transform="rotate(25 21.5491 1)" fill="#4DA8DB"/>
<rect x="33.5491" y="1" width="8.30633" height="39.1584" transform="rotate(25 33.5491 1)" fill="#A664C2"/>
<rect x="45.2814" y="1" width="8.30633" height="39.1584" transform="rotate(25 45.2814 1)" fill="#F38E33"/>
<g filter="url(#filter0_d)">
<path d="M3.9873 24.8154V23.0654C4.34277 23.2796 4.69596 23.4391 5.04688 23.5439C5.40234 23.6488 5.7373 23.7012 6.05176 23.7012C6.43457 23.7012 6.73535 23.6488 6.9541 23.5439C7.17741 23.4391 7.28906 23.2796 7.28906 23.0654C7.28906 22.9287 7.23893 22.8148 7.13867 22.7236C7.03841 22.6325 6.90853 22.5527 6.74902 22.4844C6.59408 22.416 6.42318 22.3545 6.23633 22.2998C6.04948 22.2451 5.86947 22.1836 5.69629 22.1152C5.41829 22.0104 5.1722 21.8988 4.95801 21.7803C4.74837 21.6572 4.57064 21.516 4.4248 21.3564C4.28353 21.1969 4.17415 21.0124 4.09668 20.8027C4.02376 20.5931 3.9873 20.3447 3.9873 20.0576C3.9873 19.6657 4.07161 19.3285 4.24023 19.0459C4.41341 18.7633 4.64128 18.5332 4.92383 18.3555C5.21094 18.1732 5.53678 18.041 5.90137 17.959C6.27051 17.8724 6.65332 17.8291 7.0498 17.8291C7.3597 17.8291 7.67415 17.8542 7.99316 17.9043C8.31217 17.9499 8.62663 18.0182 8.93652 18.1094V19.7773C8.66309 19.6178 8.36914 19.4993 8.05469 19.4219C7.74479 19.3398 7.43945 19.2988 7.13867 19.2988C6.9974 19.2988 6.86296 19.3125 6.73535 19.3398C6.6123 19.3626 6.50293 19.3991 6.40723 19.4492C6.31152 19.4948 6.23633 19.5563 6.18164 19.6338C6.12695 19.7067 6.09961 19.791 6.09961 19.8867C6.09961 20.0143 6.14062 20.1237 6.22266 20.2148C6.30469 20.306 6.41178 20.3857 6.54395 20.4541C6.67611 20.5179 6.82194 20.5771 6.98145 20.6318C7.14551 20.682 7.30729 20.7344 7.4668 20.7891C7.75391 20.8893 8.01367 20.9987 8.24609 21.1172C8.47852 21.2357 8.67676 21.3747 8.84082 21.5342C9.00944 21.6937 9.13704 21.8805 9.22363 22.0947C9.31478 22.3089 9.36035 22.5641 9.36035 22.8604C9.36035 23.2751 9.26921 23.6305 9.08691 23.9268C8.90918 24.2184 8.66992 24.4577 8.36914 24.6445C8.07292 24.8268 7.72884 24.959 7.33691 25.041C6.94954 25.1276 6.54622 25.1709 6.12695 25.1709C5.35677 25.1709 4.64355 25.0524 3.9873 24.8154ZM20.749 18L18.7324 25H16.4629L15.4307 20.8984C15.3623 20.625 15.3236 20.3265 15.3145 20.0029H15.2734C15.2415 20.3584 15.196 20.6478 15.1367 20.8711L14.0293 25H11.7871L9.81152 18H12.0127L12.9766 22.5664C13.0221 22.7806 13.0563 23.0404 13.0791 23.3457H13.1201C13.1429 23.0267 13.1839 22.7578 13.2432 22.5391L14.4463 18H16.5039L17.584 22.5664C17.6113 22.6803 17.6432 22.9447 17.6797 23.3594H17.7275C17.7503 23.0951 17.7868 22.8307 17.8369 22.5664L18.7461 18H20.749ZM28.002 22.1152H23.4355C23.5085 23.1315 24.1488 23.6396 25.3564 23.6396C26.1266 23.6396 26.8034 23.4574 27.3867 23.0928V24.6514C26.7396 24.9977 25.8988 25.1709 24.8643 25.1709C23.734 25.1709 22.8568 24.8587 22.2324 24.2344C21.6081 23.6055 21.2959 22.7305 21.2959 21.6094C21.2959 20.4473 21.6331 19.5267 22.3076 18.8477C22.9821 18.1686 23.8115 17.8291 24.7959 17.8291C25.8167 17.8291 26.6051 18.1322 27.1611 18.7383C27.7217 19.3444 28.002 20.167 28.002 21.2061V22.1152ZM25.999 20.7891C25.999 19.7865 25.5934 19.2852 24.7822 19.2852C24.4359 19.2852 24.1351 19.4287 23.8799 19.7158C23.6292 20.0029 23.4766 20.3607 23.4219 20.7891H25.999ZM35.1113 25H33.0674V23.9951H33.04C32.5706 24.779 31.8757 25.1709 30.9551 25.1709C30.276 25.1709 29.7406 24.9795 29.3486 24.5967C28.9613 24.2093 28.7676 23.6943 28.7676 23.0518C28.7676 21.6937 29.5719 20.9098 31.1807 20.7002L33.0811 20.4473C33.0811 19.6816 32.6663 19.2988 31.8369 19.2988C31.0029 19.2988 30.21 19.5472 29.458 20.0439V18.417C29.7588 18.262 30.1689 18.1253 30.6885 18.0068C31.2126 17.8883 31.6888 17.8291 32.1172 17.8291C34.1133 17.8291 35.1113 18.8249 35.1113 20.8164V25ZM33.0811 22.1562V21.6846L31.8096 21.8486C31.1077 21.9398 30.7568 22.2565 30.7568 22.7988C30.7568 23.0449 30.8411 23.2477 31.0098 23.4072C31.1829 23.5622 31.4154 23.6396 31.707 23.6396C32.1126 23.6396 32.443 23.5007 32.6982 23.2227C32.9535 22.9401 33.0811 22.5846 33.0811 22.1562ZM41.0518 24.918C40.7327 25.0866 40.252 25.1709 39.6094 25.1709C38.0872 25.1709 37.3262 24.3802 37.3262 22.7988V19.5928H36.1914V18H37.3262V16.4893L39.4795 15.874V18H41.0518V19.5928H39.4795V22.4229C39.4795 23.152 39.7689 23.5166 40.3477 23.5166C40.5755 23.5166 40.8102 23.4505 41.0518 23.3184V24.918ZM48.5098 22.1152H43.9434C44.0163 23.1315 44.6566 23.6396 45.8643 23.6396C46.6344 23.6396 47.3112 23.4574 47.8945 23.0928V24.6514C47.2474 24.9977 46.4066 25.1709 45.3721 25.1709C44.2419 25.1709 43.3646 24.8587 42.7402 24.2344C42.1159 23.6055 41.8037 22.7305 41.8037 21.6094C41.8037 20.4473 42.141 19.5267 42.8154 18.8477C43.4899 18.1686 44.3193 17.8291 45.3037 17.8291C46.3245 17.8291 47.113 18.1322 47.6689 18.7383C48.2295 19.3444 48.5098 20.167 48.5098 21.2061V22.1152ZM46.5068 20.7891C46.5068 19.7865 46.1012 19.2852 45.29 19.2852C44.9437 19.2852 44.6429 19.4287 44.3877 19.7158C44.137 20.0029 43.9844 20.3607 43.9297 20.7891H46.5068ZM54.3613 19.9482C54.1016 19.807 53.7985 19.7363 53.4521 19.7363C52.9827 19.7363 52.6159 19.9095 52.3516 20.2559C52.0872 20.5977 51.9551 21.0648 51.9551 21.6572V25H49.7949V18H51.9551V19.2988H51.9824C52.3242 18.3509 52.9395 17.877 53.8281 17.877C54.056 17.877 54.2337 17.9043 54.3613 17.959V19.9482Z" fill="white"/>
</g>
<defs>
<filter id="filter0_d" x="0.987305" y="15.874" width="56.374" height="16.2969" filterUnits="userSpaceOnUse" color-interpolation-filters="sRGB">
<feFlood flood-opacity="0" result="BackgroundImageFix"/>
<feColorMatrix in="SourceAlpha" type="matrix" values="0 0 0 0 0 0 0 0 0 0 0 0 0 0 0 0 0 0 127 0"/>
<feOffset dy="4"/>
<feGaussianBlur stdDeviation="1.5"/>
<feColorMatrix type="matrix" values="0 0 0 0 0 0 0 0 0 0 0 0 0 0 0 0 0 0 0.25 0"/>
<feBlend mode="normal" in2="BackgroundImageFix" result="effect1_dropShadow"/>
<feBlend mode="normal" in="SourceGraphic" in2="effect1_dropShadow" result="shape"/>
</filter>
</defs>
</svg>
